<svg version="1.2" xmlns="http://www.w3.org/2000/svg" viewBox="0 0 160 50" width="160" height="50">
	<title>logo-svg</title>
	<defs>
		<clipPath clipPathUnits="userSpaceOnUse" id="cp1">
			<path d="m53 20h104v28h-104zm17.64 13.62h0.19q0.31 0 0.54 0.22 0.22 0.19 0.38 0.5 0.19 0.3 0.26 0.64 0.08 0.35 0.08 0.61v8.93q-1.07 0.61-2.13 0.8-1.06 0.15-1.79 0.15-2.62 0-4.78-1.02-2.13-1.07-3.65-2.74-1.52-1.71-2.36-3.84-0.83-2.16-0.83-4.37 0-1.97 0.64-3.95 0.65-2.01 1.98-3.61 1.33-1.6 3.42-2.58 2.09-1.03 4.94-1.03 0.83 0 1.78 0.15 0.99 0.12 1.87 0.5 0.87 0.38 1.52 1.1 0.68 0.72 0.91 1.9h0.38v-4.03h-0.34q-0.27 0-0.65-0.08-0.34-0.11-0.84-0.22-0.87-0.19-2.01-0.42-1.14-0.23-2.47-0.23-3.53 0-6.12 1.14-2.54 1.1-4.25 2.93-1.68 1.82-2.51 4.14-0.8 2.32-0.8 4.67 0 2.36 0.8 4.68 0.83 2.31 2.51 4.18 1.67 1.82 4.21 2.96 2.55 1.14 5.97 1.14 0.84 0 1.82-0.08 0.99-0.07 1.94-0.22 0.95-0.12 1.83-0.31 0.87-0.19 1.55-0.45v-10.19q0-0.26 0.08-0.61 0.11-0.34 0.27-0.64 0.15-0.31 0.38-0.5 0.22-0.22 0.53-0.22h0.19v-0.38h-5.44zm14.41 12.23q-0.19-0.23-0.38-0.53-0.15-0.3-0.22-0.65-0.08-0.38-0.08-0.68v-10.41q0.42 0.07 0.87 0.15 0.5 0.04 0.92 0.08 1.67 2.5 3.34 5.09 1.71 2.58 3.42 5.09 0.65 0.99 1.6 1.75 0.98 0.72 2.5 0.72h1.64v-0.38q-0.42 0-0.84-0.19-0.38-0.23-0.76-0.57-0.34-0.34-0.68-0.76-0.31-0.42-0.57-0.8-0.99-1.56-2.02-3-1.02-1.48-2.01-3l-2.74-4.18q1.22-0.23 2.28-0.69 1.11-0.49 1.9-1.25 0.8-0.8 1.26-1.86 0.49-1.1 0.49-2.55 0-2.89-2.09-4.37-2.05-1.48-5.85-1.48h-6.61v0.38h0.19q0.26 0 0.49 0.23 0.23 0.19 0.38 0.49 0.19 0.31 0.27 0.65 0.07 0.34 0.07 0.61v20.25q0 0.3-0.07 0.68-0.08 0.35-0.27 0.65-0.15 0.3-0.38 0.53-0.23 0.23-0.49 0.23h-0.19v0.38h5.36v-0.38h-0.19q-0.31 0-0.54-0.23zm-0.11-23.18q1.63 0 3 0.19 1.37 0.19 2.32 0.72 0.99 0.54 1.52 1.45 0.57 0.91 0.57 2.35 0 1.45-0.53 2.4-0.5 0.95-1.29 1.56-0.76 0.57-1.68 0.83-0.87 0.23-1.67 0.23-0.99 0-1.67 0-0.65-0.04-0.95-0.08h-0.19v-9.65zm17.29-0.91h0.19q0.31 0 0.53 0.23 0.23 0.19 0.38 0.49 0.19 0.31 0.27 0.65 0.08 0.34 0.08 0.61v20.25q0 0.3-0.08 0.68-0.08 0.35-0.27 0.69-0.15 0.3-0.38 0.53-0.22 0.19-0.53 0.19h-0.19v0.38h5.44v-0.38h-0.19q-0.31 0-0.54-0.23-0.19-0.23-0.38-0.53-0.15-0.3-0.22-0.65-0.08-0.38-0.08-0.68v-20.25q0-0.27 0.08-0.61 0.11-0.38 0.26-0.65 0.15-0.3 0.38-0.49 0.23-0.23 0.5-0.23h0.19v-0.38h-5.44zm10.23 24.7h15.58v-4.79h-0.38q0 0.5-0.19 1.1-0.15 0.57-0.53 1.11-0.34 0.49-0.88 0.83-0.53 0.34-1.25 0.34h-8.32v-21.31q0-0.27 0.07-0.61 0.12-0.34 0.27-0.65 0.15-0.3 0.38-0.49 0.23-0.23 0.53-0.23h0.19v-0.38h-5.47v0.38h0.19q0.3 0 0.53 0.23 0.23 0.19 0.38 0.49 0.19 0.31 0.27 0.65 0.11 0.34 0.11 0.61v20.33q0 0.3-0.11 0.64-0.08 0.34-0.27 0.65-0.15 0.3-0.38 0.53-0.23 0.19-0.53 0.19h-0.19zm18.8 0h15.58v-4.79h-0.38q0 0.5-0.19 1.1-0.15 0.57-0.53 1.11-0.34 0.49-0.87 0.83-0.53 0.34-1.26 0.34h-8.32v-21.31q0-0.27 0.08-0.61 0.11-0.34 0.26-0.65 0.16-0.3 0.38-0.49 0.23-0.23 0.54-0.23h0.19v-0.38h-5.48v0.38h0.19q0.31 0 0.54 0.23 0.22 0.19 0.38 0.49 0.19 0.31 0.26 0.65 0.12 0.34 0.12 0.61v20.33q0 0.3-0.12 0.64-0.07 0.34-0.26 0.65-0.16 0.3-0.38 0.53-0.23 0.19-0.54 0.19h-0.19zm18.96-24.7h0.19q0.3 0 0.53 0.23 0.23 0.19 0.38 0.49 0.19 0.31 0.27 0.65 0.07 0.34 0.07 0.61v20.25q0 0.3-0.07 0.68-0.08 0.35-0.27 0.69-0.15 0.3-0.38 0.53-0.23 0.19-0.53 0.19h-0.19v0.38h5.43v-0.38h-0.19q-0.3 0-0.53-0.23-0.19-0.23-0.38-0.53-0.15-0.3-0.23-0.65-0.07-0.38-0.07-0.68v-20.25q0-0.27 0.07-0.61 0.12-0.38 0.27-0.65 0.15-0.3 0.38-0.49 0.23-0.23 0.49-0.23h0.19v-0.38h-5.43z"/>
		</clipPath>
		<clipPath clipPathUnits="userSpaceOnUse" id="cp2">
			<path d="m53 5h104v28h-104zm17.64 13.62h0.19q0.31 0 0.54 0.22 0.22 0.19 0.38 0.5 0.19 0.3 0.26 0.64 0.08 0.35 0.08 0.61v8.93q-1.07 0.61-2.13 0.8-1.06 0.15-1.79 0.15-2.62 0-4.78-1.02-2.13-1.07-3.65-2.74-1.52-1.71-2.36-3.84-0.83-2.16-0.83-4.37 0-1.97 0.64-3.95 0.65-2.01 1.98-3.61 1.33-1.6 3.42-2.58 2.09-1.03 4.94-1.03 0.83 0 1.78 0.15 0.99 0.12 1.87 0.5 0.87 0.38 1.52 1.1 0.68 0.72 0.91 1.9h0.38v-4.03h-0.34q-0.27 0-0.65-0.08-0.34-0.11-0.84-0.22-0.87-0.19-2.01-0.42-1.14-0.23-2.47-0.23-3.53 0-6.12 1.14-2.54 1.1-4.25 2.93-1.68 1.82-2.51 4.14-0.8 2.32-0.8 4.67 0 2.36 0.8 4.68 0.83 2.31 2.51 4.18 1.67 1.82 4.21 2.96 2.55 1.14 5.97 1.14 0.84 0 1.82-0.08 0.99-0.07 1.94-0.22 0.95-0.12 1.83-0.31 0.87-0.19 1.55-0.45v-10.19q0-0.26 0.08-0.61 0.11-0.34 0.27-0.64 0.15-0.31 0.38-0.5 0.22-0.22 0.53-0.22h0.19v-0.38h-5.44zm14.41 12.23q-0.19-0.23-0.38-0.53-0.15-0.3-0.22-0.65-0.08-0.38-0.08-0.68v-10.41q0.42 0.07 0.87 0.15 0.5 0.04 0.92 0.08 1.67 2.5 3.34 5.09 1.71 2.58 3.42 5.09 0.65 0.99 1.6 1.75 0.98 0.72 2.5 0.72h1.64v-0.38q-0.42 0-0.84-0.19-0.38-0.23-0.76-0.57-0.34-0.34-0.68-0.76-0.31-0.42-0.57-0.8-0.99-1.56-2.02-3-1.02-1.48-2.01-3l-2.74-4.18q1.22-0.23 2.28-0.69 1.11-0.49 1.9-1.25 0.8-0.8 1.26-1.86 0.49-1.1 0.49-2.55 0-2.89-2.09-4.37-2.05-1.48-5.85-1.48h-6.61v0.38h0.19q0.26 0 0.49 0.23 0.23 0.19 0.38 0.49 0.19 0.31 0.27 0.65 0.07 0.34 0.07 0.61v20.25q0 0.3-0.07 0.68-0.08 0.35-0.27 0.65-0.15 0.3-0.38 0.53-0.23 0.23-0.49 0.23h-0.19v0.38h5.36v-0.38h-0.19q-0.31 0-0.54-0.23zm-0.11-23.18q1.63 0 3 0.19 1.37 0.19 2.32 0.72 0.99 0.54 1.52 1.45 0.57 0.91 0.57 2.35 0 1.45-0.53 2.4-0.5 0.95-1.29 1.56-0.76 0.57-1.68 0.83-0.87 0.23-1.67 0.23-0.99 0-1.67 0-0.65-0.04-0.95-0.08h-0.19v-9.65zm17.29-0.91h0.19q0.31 0 0.53 0.23 0.23 0.19 0.38 0.49 0.19 0.31 0.27 0.65 0.08 0.34 0.08 0.61v20.25q0 0.3-0.08 0.68-0.08 0.35-0.27 0.69-0.15 0.3-0.38 0.53-0.22 0.19-0.53 0.19h-0.19v0.38h5.44v-0.38h-0.19q-0.31 0-0.54-0.23-0.19-0.23-0.38-0.53-0.15-0.3-0.22-0.65-0.08-0.38-0.08-0.68v-20.25q0-0.27 0.08-0.61 0.11-0.38 0.26-0.65 0.15-0.3 0.38-0.49 0.23-0.23 0.5-0.23h0.19v-0.38h-5.44zm10.23 24.7h15.58v-4.79h-0.38q0 0.5-0.19 1.1-0.15 0.57-0.53 1.11-0.34 0.49-0.88 0.83-0.53 0.34-1.25 0.34h-8.32v-21.31q0-0.27 0.07-0.61 0.12-0.34 0.27-0.65 0.15-0.3 0.38-0.49 0.23-0.23 0.53-0.23h0.19v-0.38h-5.47v0.38h0.19q0.3 0 0.53 0.23 0.23 0.19 0.38 0.49 0.19 0.31 0.27 0.65 0.11 0.34 0.11 0.61v20.33q0 0.3-0.11 0.64-0.08 0.34-0.27 0.65-0.15 0.3-0.38 0.53-0.23 0.19-0.53 0.19h-0.19zm18.8 0h15.58v-4.79h-0.38q0 0.5-0.19 1.1-0.15 0.57-0.53 1.11-0.34 0.49-0.87 0.83-0.53 0.34-1.26 0.34h-8.32v-21.31q0-0.27 0.08-0.61 0.11-0.34 0.26-0.65 0.16-0.3 0.38-0.49 0.23-0.23 0.54-0.23h0.19v-0.38h-5.48v0.38h0.19q0.31 0 0.54 0.23 0.22 0.19 0.38 0.49 0.19 0.31 0.26 0.65 0.12 0.34 0.12 0.61v20.33q0 0.3-0.12 0.64-0.07 0.34-0.26 0.65-0.16 0.3-0.38 0.53-0.23 0.19-0.54 0.19h-0.19zm18.96-24.7h0.19q0.3 0 0.53 0.23 0.23 0.19 0.38 0.49 0.19 0.31 0.27 0.65 0.07 0.34 0.07 0.61v20.25q0 0.3-0.07 0.68-0.08 0.35-0.27 0.69-0.15 0.3-0.38 0.53-0.23 0.19-0.53 0.19h-0.19v0.38h5.43v-0.38h-0.19q-0.3 0-0.53-0.23-0.19-0.23-0.38-0.53-0.15-0.3-0.23-0.65-0.07-0.38-0.07-0.68v-20.25q0-0.27 0.07-0.61 0.12-0.38 0.27-0.65 0.15-0.3 0.38-0.49 0.23-0.23 0.49-0.23h0.19v-0.38h-5.43z"/>
		</clipPath>
		<clipPath clipPathUnits="userSpaceOnUse" id="cp3">
			<path d="m53 5h104v28h-104zm17.64 13.62h0.19q0.31 0 0.54 0.22 0.22 0.19 0.38 0.5 0.19 0.3 0.26 0.64 0.08 0.35 0.08 0.61v8.93q-1.07 0.61-2.13 0.8-1.06 0.15-1.79 0.15-2.62 0-4.78-1.02-2.13-1.07-3.65-2.74-1.52-1.71-2.36-3.84-0.83-2.16-0.83-4.37 0-1.97 0.64-3.95 0.65-2.01 1.98-3.61 1.33-1.6 3.42-2.58 2.09-1.03 4.94-1.03 0.83 0 1.78 0.15 0.99 0.12 1.87 0.5 0.87 0.38 1.52 1.1 0.68 0.72 0.91 1.9h0.38v-4.03h-0.34q-0.27 0-0.65-0.08-0.34-0.11-0.84-0.22-0.87-0.19-2.01-0.42-1.14-0.23-2.47-0.23-3.53 0-6.12 1.14-2.54 1.1-4.25 2.93-1.68 1.82-2.51 4.14-0.8 2.32-0.8 4.67 0 2.36 0.8 4.68 0.83 2.31 2.51 4.18 1.67 1.82 4.21 2.96 2.55 1.14 5.97 1.14 0.84 0 1.82-0.08 0.99-0.07 1.94-0.22 0.95-0.12 1.83-0.31 0.87-0.19 1.55-0.45v-10.19q0-0.26 0.08-0.61 0.11-0.34 0.27-0.64 0.15-0.31 0.38-0.5 0.22-0.22 0.53-0.22h0.19v-0.38h-5.44zm14.41 12.23q-0.19-0.23-0.38-0.53-0.15-0.3-0.22-0.65-0.08-0.38-0.08-0.68v-10.41q0.42 0.07 0.87 0.15 0.5 0.04 0.92 0.08 1.67 2.5 3.34 5.09 1.71 2.58 3.42 5.09 0.65 0.99 1.6 1.75 0.98 0.72 2.5 0.72h1.64v-0.38q-0.42 0-0.84-0.19-0.38-0.23-0.76-0.57-0.34-0.34-0.68-0.76-0.31-0.42-0.57-0.8-0.99-1.56-2.02-3-1.02-1.48-2.01-3l-2.74-4.18q1.22-0.23 2.28-0.69 1.11-0.49 1.9-1.25 0.8-0.8 1.26-1.86 0.49-1.1 0.49-2.55 0-2.89-2.09-4.37-2.05-1.48-5.85-1.48h-6.61v0.38h0.19q0.26 0 0.49 0.23 0.23 0.19 0.38 0.49 0.19 0.31 0.27 0.65 0.07 0.34 0.07 0.61v20.25q0 0.3-0.07 0.68-0.08 0.35-0.27 0.65-0.15 0.3-0.38 0.53-0.23 0.23-0.49 0.23h-0.19v0.38h5.36v-0.38h-0.19q-0.31 0-0.54-0.23zm-0.11-23.18q1.63 0 3 0.19 1.37 0.19 2.32 0.72 0.99 0.54 1.52 1.45 0.57 0.91 0.57 2.35 0 1.45-0.53 2.4-0.5 0.95-1.29 1.56-0.76 0.57-1.68 0.83-0.87 0.23-1.67 0.23-0.99 0-1.67 0-0.65-0.04-0.95-0.08h-0.19v-9.65zm17.29-0.91h0.19q0.31 0 0.53 0.23 0.23 0.19 0.38 0.49 0.19 0.31 0.27 0.65 0.08 0.34 0.08 0.61v20.25q0 0.3-0.08 0.68-0.08 0.35-0.27 0.69-0.15 0.3-0.38 0.53-0.22 0.19-0.53 0.19h-0.19v0.38h5.44v-0.38h-0.19q-0.31 0-0.54-0.23-0.19-0.23-0.38-0.53-0.15-0.3-0.22-0.65-0.08-0.38-0.08-0.68v-20.25q0-0.27 0.08-0.61 0.11-0.38 0.26-0.65 0.15-0.3 0.38-0.49 0.23-0.23 0.5-0.23h0.19v-0.38h-5.44zm10.23 24.7h15.58v-4.79h-0.38q0 0.5-0.19 1.1-0.15 0.57-0.53 1.11-0.34 0.49-0.88 0.83-0.53 0.34-1.25 0.34h-8.32v-21.31q0-0.27 0.07-0.61 0.12-0.34 0.27-0.65 0.15-0.3 0.38-0.49 0.23-0.23 0.53-0.23h0.19v-0.38h-5.47v0.38h0.19q0.3 0 0.53 0.23 0.23 0.19 0.38 0.49 0.19 0.31 0.27 0.65 0.11 0.34 0.11 0.61v20.33q0 0.3-0.11 0.64-0.08 0.34-0.27 0.65-0.15 0.3-0.38 0.53-0.23 0.19-0.53 0.19h-0.19zm18.8 0h15.58v-4.79h-0.38q0 0.5-0.19 1.1-0.15 0.57-0.53 1.11-0.34 0.49-0.87 0.83-0.53 0.34-1.26 0.34h-8.32v-21.31q0-0.27 0.08-0.61 0.11-0.34 0.26-0.65 0.16-0.3 0.38-0.49 0.23-0.23 0.54-0.23h0.19v-0.38h-5.48v0.38h0.19q0.31 0 0.54 0.23 0.22 0.19 0.38 0.49 0.19 0.31 0.26 0.65 0.12 0.34 0.12 0.61v20.33q0 0.3-0.12 0.64-0.07 0.34-0.26 0.65-0.16 0.3-0.38 0.53-0.23 0.19-0.54 0.19h-0.19zm18.96-24.7h0.19q0.3 0 0.53 0.23 0.23 0.19 0.38 0.49 0.19 0.31 0.27 0.65 0.07 0.34 0.07 0.61v20.25q0 0.3-0.07 0.68-0.08 0.35-0.27 0.69-0.15 0.3-0.38 0.53-0.23 0.19-0.53 0.19h-0.19v0.38h5.43v-0.38h-0.19q-0.3 0-0.53-0.23-0.19-0.23-0.38-0.53-0.15-0.3-0.23-0.65-0.07-0.38-0.07-0.68v-20.25q0-0.27 0.07-0.61 0.12-0.38 0.27-0.65 0.15-0.3 0.38-0.49 0.23-0.23 0.49-0.23h0.19v-0.38h-5.43z"/>
		</clipPath>
		<clipPath clipPathUnits="userSpaceOnUse" id="cp4">
			<path d="m53 5h104v28h-104zm17.64 13.62h0.19q0.31 0 0.54 0.22 0.22 0.19 0.38 0.5 0.19 0.3 0.26 0.64 0.08 0.35 0.08 0.61v8.93q-1.07 0.61-2.13 0.8-1.06 0.15-1.79 0.15-2.62 0-4.78-1.02-2.13-1.07-3.65-2.74-1.52-1.71-2.36-3.84-0.83-2.16-0.83-4.37 0-1.97 0.64-3.95 0.65-2.01 1.98-3.61 1.33-1.6 3.42-2.58 2.09-1.03 4.94-1.03 0.83 0 1.78 0.15 0.99 0.12 1.87 0.5 0.87 0.38 1.52 1.1 0.68 0.72 0.91 1.9h0.38v-4.03h-0.34q-0.27 0-0.65-0.08-0.34-0.11-0.84-0.22-0.87-0.19-2.01-0.42-1.14-0.23-2.47-0.23-3.53 0-6.12 1.14-2.54 1.1-4.25 2.93-1.68 1.82-2.51 4.14-0.8 2.32-0.8 4.67 0 2.36 0.8 4.68 0.83 2.31 2.51 4.18 1.67 1.82 4.21 2.96 2.55 1.14 5.97 1.14 0.84 0 1.82-0.08 0.99-0.07 1.94-0.22 0.95-0.12 1.83-0.31 0.87-0.19 1.55-0.45v-10.19q0-0.26 0.08-0.61 0.11-0.34 0.27-0.64 0.15-0.31 0.38-0.5 0.22-0.22 0.53-0.22h0.19v-0.38h-5.44zm14.41 12.23q-0.19-0.23-0.38-0.53-0.15-0.3-0.22-0.65-0.08-0.38-0.08-0.68v-10.41q0.42 0.07 0.87 0.15 0.5 0.04 0.92 0.08 1.67 2.5 3.34 5.09 1.71 2.58 3.42 5.09 0.65 0.99 1.6 1.75 0.98 0.72 2.5 0.72h1.64v-0.38q-0.42 0-0.84-0.19-0.38-0.23-0.76-0.57-0.34-0.34-0.68-0.76-0.31-0.42-0.57-0.8-0.99-1.56-2.02-3-1.02-1.48-2.01-3l-2.74-4.18q1.22-0.23 2.28-0.69 1.11-0.49 1.9-1.25 0.8-0.8 1.26-1.86 0.49-1.1 0.49-2.55 0-2.89-2.09-4.37-2.05-1.48-5.85-1.48h-6.61v0.38h0.19q0.26 0 0.49 0.23 0.23 0.19 0.38 0.49 0.19 0.31 0.27 0.65 0.07 0.34 0.07 0.61v20.25q0 0.3-0.07 0.68-0.08 0.35-0.27 0.65-0.15 0.3-0.38 0.53-0.23 0.23-0.49 0.23h-0.19v0.38h5.36v-0.38h-0.19q-0.31 0-0.54-0.23zm-0.11-23.18q1.63 0 3 0.19 1.37 0.19 2.32 0.72 0.99 0.54 1.52 1.45 0.57 0.91 0.57 2.35 0 1.45-0.53 2.4-0.5 0.95-1.29 1.56-0.76 0.57-1.68 0.83-0.87 0.23-1.67 0.23-0.99 0-1.67 0-0.65-0.04-0.95-0.08h-0.19v-9.65zm17.29-0.91h0.19q0.31 0 0.53 0.23 0.23 0.19 0.38 0.49 0.19 0.31 0.27 0.65 0.08 0.34 0.08 0.61v20.25q0 0.3-0.08 0.68-0.08 0.35-0.27 0.69-0.15 0.3-0.38 0.53-0.22 0.19-0.53 0.19h-0.19v0.38h5.44v-0.38h-0.19q-0.31 0-0.54-0.23-0.19-0.23-0.38-0.53-0.15-0.3-0.22-0.65-0.08-0.38-0.08-0.68v-20.25q0-0.27 0.08-0.61 0.11-0.38 0.26-0.65 0.15-0.3 0.38-0.49 0.23-0.23 0.5-0.23h0.19v-0.38h-5.44zm10.23 24.7h15.58v-4.79h-0.38q0 0.5-0.19 1.1-0.15 0.57-0.53 1.11-0.34 0.49-0.88 0.83-0.53 0.34-1.25 0.34h-8.32v-21.31q0-0.27 0.07-0.61 0.12-0.34 0.27-0.65 0.15-0.3 0.38-0.49 0.23-0.23 0.53-0.23h0.19v-0.38h-5.47v0.38h0.19q0.3 0 0.53 0.23 0.23 0.19 0.38 0.49 0.19 0.31 0.27 0.65 0.11 0.34 0.11 0.61v20.33q0 0.3-0.11 0.64-0.08 0.34-0.27 0.65-0.15 0.3-0.38 0.53-0.23 0.19-0.53 0.19h-0.19zm18.8 0h15.58v-4.79h-0.38q0 0.5-0.19 1.1-0.15 0.57-0.53 1.11-0.34 0.49-0.87 0.83-0.53 0.34-1.26 0.34h-8.32v-21.31q0-0.27 0.08-0.61 0.11-0.34 0.26-0.65 0.16-0.3 0.38-0.49 0.23-0.23 0.54-0.23h0.19v-0.38h-5.48v0.38h0.19q0.31 0 0.54 0.23 0.22 0.19 0.38 0.49 0.19 0.31 0.26 0.65 0.12 0.34 0.12 0.61v20.33q0 0.3-0.12 0.64-0.07 0.34-0.26 0.65-0.16 0.3-0.38 0.53-0.23 0.19-0.54 0.19h-0.19zm18.96-24.7h0.19q0.3 0 0.53 0.23 0.23 0.19 0.38 0.49 0.19 0.31 0.27 0.65 0.07 0.34 0.07 0.61v20.25q0 0.3-0.07 0.68-0.08 0.35-0.27 0.69-0.15 0.3-0.38 0.53-0.23 0.19-0.53 0.19h-0.19v0.38h5.43v-0.38h-0.19q-0.3 0-0.53-0.23-0.19-0.23-0.38-0.53-0.15-0.3-0.23-0.65-0.07-0.38-0.07-0.68v-20.25q0-0.27 0.07-0.61 0.12-0.38 0.27-0.65 0.15-0.3 0.38-0.49 0.23-0.23 0.49-0.23h0.19v-0.38h-5.43z"/>
		</clipPath>
		<clipPath clipPathUnits="userSpaceOnUse" id="cp5">
			<path d="m53 5h104v28h-104zm17.64 13.62h0.19q0.31 0 0.54 0.22 0.22 0.19 0.38 0.5 0.19 0.3 0.26 0.64 0.08 0.35 0.08 0.61v8.93q-1.07 0.61-2.13 0.8-1.06 0.15-1.79 0.15-2.62 0-4.78-1.02-2.13-1.07-3.65-2.74-1.52-1.71-2.36-3.84-0.83-2.16-0.83-4.37 0-1.97 0.64-3.95 0.65-2.01 1.98-3.61 1.33-1.6 3.42-2.58 2.09-1.03 4.94-1.03 0.83 0 1.78 0.15 0.99 0.12 1.87 0.5 0.87 0.38 1.52 1.1 0.68 0.72 0.91 1.9h0.38v-4.03h-0.34q-0.27 0-0.65-0.08-0.34-0.11-0.84-0.22-0.87-0.19-2.01-0.42-1.14-0.23-2.47-0.23-3.53 0-6.12 1.14-2.54 1.1-4.25 2.93-1.68 1.82-2.51 4.14-0.8 2.32-0.8 4.67 0 2.36 0.8 4.68 0.83 2.31 2.51 4.18 1.67 1.82 4.21 2.96 2.55 1.14 5.97 1.14 0.84 0 1.82-0.08 0.99-0.07 1.94-0.22 0.95-0.12 1.83-0.31 0.87-0.19 1.55-0.45v-10.19q0-0.26 0.08-0.61 0.11-0.34 0.27-0.64 0.15-0.31 0.38-0.5 0.22-0.22 0.53-0.22h0.19v-0.38h-5.44zm14.41 12.23q-0.19-0.23-0.38-0.53-0.15-0.3-0.22-0.65-0.08-0.38-0.08-0.68v-10.41q0.42 0.07 0.87 0.15 0.5 0.04 0.92 0.08 1.67 2.5 3.34 5.09 1.71 2.58 3.42 5.09 0.65 0.99 1.6 1.75 0.98 0.72 2.5 0.72h1.64v-0.38q-0.42 0-0.84-0.19-0.38-0.23-0.76-0.57-0.34-0.34-0.68-0.76-0.31-0.42-0.57-0.8-0.99-1.56-2.02-3-1.02-1.48-2.01-3l-2.74-4.18q1.22-0.23 2.28-0.69 1.11-0.49 1.9-1.25 0.8-0.8 1.26-1.86 0.49-1.1 0.49-2.55 0-2.89-2.09-4.37-2.05-1.48-5.85-1.48h-6.61v0.38h0.19q0.26 0 0.49 0.23 0.23 0.19 0.38 0.49 0.19 0.31 0.27 0.65 0.07 0.34 0.07 0.61v20.25q0 0.3-0.07 0.68-0.08 0.35-0.27 0.65-0.15 0.3-0.38 0.53-0.23 0.23-0.49 0.23h-0.19v0.38h5.36v-0.38h-0.19q-0.31 0-0.54-0.23zm-0.11-23.18q1.63 0 3 0.19 1.37 0.19 2.32 0.72 0.99 0.54 1.52 1.45 0.57 0.91 0.57 2.35 0 1.45-0.53 2.4-0.5 0.95-1.29 1.56-0.76 0.57-1.68 0.83-0.87 0.23-1.67 0.23-0.99 0-1.67 0-0.65-0.04-0.95-0.08h-0.19v-9.65zm17.29-0.91h0.19q0.31 0 0.53 0.23 0.23 0.19 0.38 0.49 0.19 0.31 0.27 0.65 0.08 0.34 0.08 0.61v20.25q0 0.3-0.08 0.68-0.08 0.35-0.27 0.69-0.15 0.3-0.38 0.53-0.22 0.19-0.53 0.19h-0.19v0.38h5.44v-0.38h-0.19q-0.31 0-0.54-0.23-0.19-0.23-0.38-0.53-0.15-0.3-0.22-0.65-0.08-0.38-0.08-0.68v-20.25q0-0.27 0.08-0.61 0.11-0.38 0.26-0.65 0.15-0.3 0.38-0.49 0.23-0.23 0.5-0.23h0.19v-0.38h-5.44zm10.23 24.7h15.58v-4.79h-0.38q0 0.5-0.19 1.1-0.15 0.57-0.53 1.11-0.34 0.49-0.88 0.83-0.53 0.34-1.25 0.34h-8.32v-21.31q0-0.27 0.07-0.61 0.12-0.34 0.27-0.65 0.15-0.3 0.38-0.49 0.23-0.23 0.53-0.23h0.19v-0.38h-5.47v0.38h0.19q0.3 0 0.53 0.23 0.23 0.19 0.38 0.49 0.19 0.31 0.27 0.65 0.11 0.34 0.11 0.61v20.33q0 0.3-0.11 0.64-0.08 0.34-0.27 0.65-0.15 0.3-0.38 0.53-0.23 0.19-0.53 0.19h-0.19zm18.8 0h15.58v-4.79h-0.38q0 0.5-0.19 1.1-0.15 0.57-0.53 1.11-0.34 0.49-0.87 0.83-0.53 0.34-1.26 0.34h-8.32v-21.31q0-0.27 0.08-0.61 0.11-0.34 0.26-0.65 0.16-0.3 0.38-0.49 0.23-0.23 0.54-0.23h0.19v-0.38h-5.48v0.38h0.19q0.31 0 0.54 0.23 0.22 0.19 0.38 0.49 0.19 0.31 0.26 0.65 0.12 0.34 0.12 0.61v20.33q0 0.3-0.12 0.64-0.07 0.34-0.26 0.65-0.16 0.3-0.38 0.53-0.23 0.19-0.54 0.19h-0.19zm18.96-24.7h0.19q0.3 0 0.53 0.23 0.23 0.19 0.38 0.49 0.19 0.31 0.27 0.65 0.07 0.34 0.07 0.61v20.25q0 0.3-0.07 0.68-0.08 0.35-0.27 0.69-0.15 0.3-0.38 0.53-0.23 0.19-0.53 0.19h-0.19v0.38h5.43v-0.38h-0.19q-0.3 0-0.53-0.23-0.19-0.23-0.38-0.53-0.15-0.3-0.23-0.65-0.07-0.38-0.07-0.68v-20.25q0-0.27 0.07-0.61 0.12-0.38 0.27-0.65 0.15-0.3 0.38-0.49 0.23-0.23 0.49-0.23h0.19v-0.38h-5.43z"/>
		</clipPath>
		<clipPath clipPathUnits="userSpaceOnUse" id="cp6">
			<path d="m53 5h104v28h-104zm17.64 13.62h0.19q0.31 0 0.54 0.22 0.22 0.19 0.38 0.5 0.19 0.3 0.26 0.64 0.08 0.35 0.08 0.61v8.93q-1.07 0.61-2.13 0.8-1.06 0.15-1.79 0.15-2.62 0-4.78-1.02-2.13-1.07-3.65-2.74-1.52-1.71-2.36-3.84-0.83-2.16-0.83-4.37 0-1.97 0.64-3.95 0.65-2.01 1.98-3.61 1.33-1.6 3.42-2.58 2.09-1.03 4.94-1.03 0.83 0 1.78 0.15 0.99 0.12 1.87 0.5 0.87 0.38 1.52 1.1 0.68 0.72 0.91 1.9h0.38v-4.03h-0.34q-0.27 0-0.65-0.08-0.34-0.11-0.84-0.22-0.87-0.19-2.01-0.42-1.14-0.23-2.47-0.23-3.53 0-6.12 1.14-2.54 1.1-4.25 2.93-1.68 1.82-2.51 4.14-0.8 2.32-0.8 4.67 0 2.36 0.8 4.68 0.83 2.31 2.51 4.18 1.67 1.82 4.21 2.96 2.55 1.14 5.97 1.14 0.84 0 1.82-0.08 0.99-0.07 1.94-0.22 0.95-0.12 1.83-0.31 0.87-0.19 1.55-0.45v-10.19q0-0.26 0.08-0.61 0.11-0.34 0.27-0.64 0.15-0.31 0.38-0.5 0.22-0.22 0.53-0.22h0.19v-0.38h-5.44zm14.41 12.23q-0.19-0.23-0.38-0.53-0.15-0.3-0.22-0.65-0.08-0.38-0.08-0.68v-10.41q0.42 0.07 0.87 0.15 0.5 0.04 0.92 0.08 1.67 2.5 3.34 5.09 1.71 2.58 3.42 5.09 0.65 0.99 1.6 1.75 0.98 0.72 2.5 0.72h1.64v-0.38q-0.42 0-0.84-0.19-0.38-0.23-0.76-0.57-0.34-0.34-0.68-0.76-0.31-0.42-0.57-0.8-0.99-1.56-2.02-3-1.02-1.48-2.01-3l-2.74-4.18q1.22-0.23 2.28-0.69 1.11-0.49 1.9-1.25 0.8-0.8 1.26-1.86 0.49-1.1 0.49-2.55 0-2.89-2.09-4.37-2.05-1.48-5.85-1.48h-6.61v0.38h0.19q0.26 0 0.49 0.23 0.23 0.19 0.38 0.49 0.19 0.31 0.27 0.65 0.07 0.34 0.07 0.61v20.25q0 0.3-0.07 0.68-0.08 0.35-0.27 0.65-0.15 0.3-0.38 0.53-0.23 0.23-0.49 0.23h-0.19v0.38h5.36v-0.38h-0.19q-0.31 0-0.54-0.23zm-0.11-23.18q1.63 0 3 0.19 1.37 0.19 2.32 0.72 0.99 0.54 1.52 1.45 0.57 0.91 0.57 2.35 0 1.45-0.53 2.4-0.5 0.95-1.29 1.56-0.76 0.57-1.68 0.83-0.87 0.23-1.67 0.23-0.99 0-1.67 0-0.65-0.04-0.95-0.08h-0.19v-9.65zm17.29-0.91h0.19q0.31 0 0.53 0.23 0.23 0.19 0.38 0.49 0.19 0.31 0.27 0.65 0.08 0.34 0.08 0.61v20.25q0 0.3-0.08 0.68-0.08 0.35-0.27 0.69-0.15 0.3-0.38 0.53-0.22 0.19-0.53 0.19h-0.19v0.38h5.44v-0.38h-0.19q-0.31 0-0.54-0.23-0.19-0.23-0.38-0.53-0.15-0.3-0.22-0.65-0.08-0.38-0.08-0.68v-20.25q0-0.27 0.08-0.61 0.11-0.38 0.26-0.65 0.15-0.3 0.38-0.49 0.23-0.23 0.5-0.23h0.19v-0.38h-5.44zm10.23 24.7h15.58v-4.79h-0.38q0 0.5-0.19 1.1-0.15 0.57-0.53 1.11-0.34 0.49-0.88 0.83-0.53 0.34-1.25 0.34h-8.32v-21.31q0-0.27 0.07-0.61 0.12-0.34 0.27-0.65 0.15-0.3 0.38-0.49 0.23-0.23 0.53-0.23h0.19v-0.38h-5.47v0.38h0.19q0.3 0 0.53 0.23 0.23 0.19 0.38 0.49 0.19 0.31 0.27 0.65 0.11 0.34 0.11 0.61v20.33q0 0.3-0.11 0.64-0.08 0.34-0.27 0.65-0.15 0.3-0.38 0.53-0.23 0.19-0.53 0.19h-0.19zm18.8 0h15.58v-4.79h-0.38q0 0.5-0.19 1.1-0.15 0.57-0.53 1.11-0.34 0.49-0.87 0.83-0.53 0.34-1.26 0.34h-8.32v-21.31q0-0.27 0.08-0.61 0.11-0.34 0.26-0.65 0.16-0.3 0.38-0.49 0.23-0.23 0.54-0.23h0.19v-0.38h-5.48v0.38h0.19q0.31 0 0.54 0.23 0.22 0.19 0.38 0.49 0.19 0.31 0.26 0.65 0.12 0.34 0.12 0.61v20.33q0 0.3-0.12 0.64-0.07 0.34-0.26 0.65-0.16 0.3-0.38 0.53-0.23 0.19-0.54 0.19h-0.19zm18.96-24.7h0.19q0.3 0 0.53 0.23 0.23 0.19 0.38 0.49 0.19 0.31 0.27 0.65 0.07 0.34 0.07 0.61v20.25q0 0.3-0.07 0.68-0.08 0.35-0.27 0.69-0.15 0.3-0.38 0.53-0.23 0.19-0.53 0.19h-0.19v0.38h5.43v-0.38h-0.19q-0.3 0-0.53-0.23-0.19-0.23-0.38-0.53-0.15-0.3-0.23-0.65-0.07-0.38-0.07-0.68v-20.25q0-0.27 0.07-0.61 0.12-0.38 0.27-0.65 0.15-0.3 0.38-0.49 0.23-0.23 0.49-0.23h0.19v-0.38h-5.43z"/>
		</clipPath>
	</defs>
	<style>
		tspan { white-space:pre } 
		.s0 { fill: #e4c590 } 
		.t1 { font-size: 20px;fill: #ffffff;font-weight: 400;font-family: "Fraunces-Regular", "Fraunces" } 
	</style>
	<g id="Clip-Path" clip-path="url(#cp1)">
	</g>
	<g id="Clip-Path" clip-path="url(#cp2)">
	</g>
	<g id="Clip-Path" clip-path="url(#cp3)">
	</g>
	<g id="Clip-Path" clip-path="url(#cp4)">
	</g>
	<g id="Clip-Path" clip-path="url(#cp5)">
	</g>
	<g id="Clip-Path" clip-path="url(#cp6)">
	</g>
	<path id="Layer" fill-rule="evenodd" class="s0" d="m32.1 41.5c0-1.1 0.1-1.7 0.5-2.6 0.6-1.3 1-2.5 1.3-3.6-2.7 2.9-6.6 4.7-10.9 4.7-8.3 0-15-6.7-15-15 0-8.3 6.7-15 15-15 2.3 0 4.5 0.5 6.5 1.5 0.3-1.5 0.9-2.8 1.6-3.9q0.2-0.4 0.4-0.7c-2.6-1.2-5.4-1.9-8.5-1.9-11 0-20 9-20 20 0 11 9 20 20 20 3.4 0 6.7-0.9 9.5-2.4q-0.4-0.5-0.4-1.1zm-9.1-28.5c-6.6 0-12 5.4-12 12 0 6.6 5.4 12 12 12 5.8 0 10.6-4.1 11.7-9.5q0-0.4 0-0.9c0-1.4-0.6-2.5-1.5-3.3-3.2-1.4-4.3-5-4.2-8.7-1.8-1-3.8-1.6-6-1.6z"/>
	<path id="Layer" class="s0" d="m41.8 22.9c5-2.3 4.8-9.7 2-14.4-2.8-4.6-7-4.7-9.9 0-2.7 4.6-3 12 2.1 14.4 0.9 0.8 1.6 2.5 1.6 3.9 0 4.2 0.3 7.5-1.9 12.3-0.4 0.9-0.6 1.6-0.6 2.1 0 2.1 1.7 3.8 3.8 3.8 2 0 3.7-1.7 3.7-3.8 0-0.5-0.2-1.2-0.5-2.1-2.3-4.9-2-8.4-2-12.3 0-1.4 0.7-3.1 1.7-3.9z"/>
	<text id="Fusion Flavors" style="transform: matrix(1.255,0,0,.997,52,20.93)" >
		<tspan x="0" y="0" class="t1">F</tspan><tspan  y="0" class="t1">u</tspan><tspan  y="0" class="t1">s</tspan><tspan  y="0" class="t1">i</tspan><tspan  y="0" class="t1">o</tspan><tspan  y="0" class="t1">n</tspan><tspan  y="0" class="t1">
</tspan>
		<tspan x="0" y="24" class="t1">F</tspan><tspan  y="24" class="t1">l</tspan><tspan  y="24" class="t1">a</tspan><tspan  y="24" class="t1">v</tspan><tspan  y="24" class="t1">o</tspan><tspan  y="24" class="t1">r</tspan><tspan  y="24" class="t1">s</tspan><tspan  y="24" class="t1">
</tspan>
	</text>
</svg>